
<svg xmlns="http://www.w3.org/2000/svg"  width="1440" height="900">
<path d="M0 0 C4.26044818 0.57573624 5.87740906 2.6305018 8.48046875 5.83984375 C16.99149938 17.93907239 18.15377931 30.65005421 17 45 C14.75636189 57.45420677 7.14134603 67.66169682 -3 75 C-16.50151303 83.21037955 -29.62470597 84.22392646 -45 82 C-46 81 -46 81 -46.1875 78.5625 C-46 76 -46 76 -44 74 C-40.70285207 74.32971479 -39.3773161 74.6226839 -37 77 C-23.66974649 78.44930696 -12.50802733 75.43236761 -2 67 C-2 66.67 -2 66.34 -2 66 C-3.216875 66.0825 -4.43375 66.165 -5.6875 66.25 C-8.72900823 66.45620395 -9.93915983 66.03611247 -12.609375 64.45117188 C-15.28425147 61.70854935 -15.56863815 60.28481375 -15.56648254 56.51544189 C-15.54067612 55.81425232 -15.51486969 55.11306274 -15.48828125 54.390625 C-15.48120651 53.66381531 -15.47413177 52.93700562 -15.46684265 52.18817139 C-15.4389273 49.87438543 -15.37620383 47.56305002 -15.3125 45.25 C-15.28741299 43.67842046 -15.26460051 42.10680284 -15.24414062 40.53515625 C-15.18911132 36.6891648 -15.10286666 32.84499735 -15 29 C-15.68562012 29.42007324 -16.37124023 29.84014648 -17.07763672 30.27294922 C-17.97756348 30.81967285 -18.87749023 31.36639648 -19.8046875 31.9296875 C-20.69655762 32.47351074 -21.58842773 33.01733398 -22.50732422 33.57763672 C-25.52593407 35.30010695 -27.49933655 36.15220276 -31 36 C-34.99087202 34.47565541 -38.4543562 32.36376253 -42 30 C-42.02481344 34.03848316 -42.0429136 38.07693647 -42.05493164 42.11547852 C-42.05994454 43.48788222 -42.06675658 44.86028062 -42.07543945 46.23266602 C-42.08763857 48.21107651 -42.09272248 50.1895268 -42.09765625 52.16796875 C-42.10289307 53.35672607 -42.10812988 54.5454834 -42.11352539 55.77026367 C-42.10153471 58.95294533 -42.10153471 58.95294533 -41.36889648 61.80200195 C-41.24716064 62.52734131 -41.1254248 63.25268066 -41 64 C-43 66 -43 66 -45.5 66.25 C-48 66 -48 66 -50 64 C-49.7150187 62.32438831 -49.3675173 60.65946375 -49 59 C-48.85154614 56.13383424 -48.74476426 53.28579506 -48.68359375 50.41796875 C-48.6524221 49.19670036 -48.6524221 49.19670036 -48.62062073 47.95075989 C-48.55550537 45.36308821 -48.49641792 42.77531947 -48.4375 40.1875 C-48.39427858 38.42772455 -48.35066315 36.66795872 -48.30664062 34.90820312 C-48.1998632 30.60556691 -48.09848982 26.30283357 -48 22 C-45 21 -45 21 -42.87890625 21.890625 C-41.73228516 22.56351563 -41.73228516 22.56351563 -40.5625 23.25 C-39.80066406 23.68828125 -39.03882813 24.1265625 -38.25390625 24.578125 C-36 26 -36 26 -34.08984375 27.671875 C-31.16145815 29.5329051 -29.41578574 29.48612568 -26 29 C-23.07481845 27.25330026 -23.07481845 27.25330026 -20.375 24.9375 C-15.51618832 20.95654085 -15.51618832 20.95654085 -12.7265625 21.19140625 C-11 22 -11 22 -10 23 C-9.83996512 25.66426685 -9.74057111 28.30560428 -9.68359375 30.97265625 C-9.66281265 31.77029892 -9.64203156 32.56794159 -9.62062073 33.38975525 C-9.55503842 35.94724611 -9.49620033 38.5048428 -9.4375 41.0625 C-9.39432301 42.79232882 -9.35070899 44.52214679 -9.30664062 46.25195312 C-9.19934828 50.5011926 -9.09810574 54.7505389 -9 59 C-7.35 59.33 -5.7 59.66 -4 60 C-1.41915826 54.07613245 -1.66851823 48.19743639 -1.62109375 41.85546875 C-1.60409927 40.68993973 -1.5871048 39.52441071 -1.56959534 38.32356262 C-1.51657769 34.61159632 -1.47619568 30.89964108 -1.4375 27.1875 C-1.39361836 23.45756092 -1.34700674 19.72770961 -1.29469299 15.99787903 C-1.26264918 13.67868147 -1.23578651 11.35940573 -1.21446228 9.04008484 C-1.20097244 7.99842667 -1.1874826 6.95676849 -1.17358398 5.88354492 C-1.15931618 4.50171272 -1.15931618 4.50171272 -1.14476013 3.09196472 C-1 1 -1 1 0 0 Z M4 9 C3.98969254 9.55852661 3.97938507 10.11705322 3.96876526 10.69250488 C3.86014663 16.53306484 3.74559774 22.37348762 3.62768555 28.21386719 C3.58451322 30.39027013 3.54282654 32.5667031 3.50268555 34.74316406 C3.4445518 37.88095119 3.38098397 41.01858967 3.31640625 44.15625 C3.29969376 45.12115356 3.28298126 46.08605713 3.26576233 47.0802002 C3.14917851 52.45983248 2.76993473 57.67347648 2 63 C8.28909803 57.78903306 11.81222839 50.03276468 13 42 C13.89276512 30.40868893 12.67275049 18.26021611 5 9 C4.67 9 4.34 9 4 9 Z " fill="#A7A8AE" transform="translate(80,15)"/>
<path d="M0 0 C1.16273437 0.0309375 2.32546875 0.061875 3.5234375 0.09375 C5.42996094 0.17109375 5.42996094 0.17109375 7.375 0.25 C8.57898437 0.29640625 9.78296875 0.3428125 11.0234375 0.390625 C14 1 14 1 15.4765625 2.859375 C16 5 16 5 15 8 C12.125 8.625 12.125 8.625 9 9 C8.34 8.34 7.68 7.68 7 7 C-4.50408383 3.86799812 -15.99464305 6.00884262 -26.1875 11.75 C-36.39602454 18.30007052 -40.84510492 26.25616663 -45.375 37.375 C-47.44454677 49.37837128 -46.24487629 59.9175731 -39.8828125 70.296875 C-39.34285645 71.18213867 -38.80290039 72.06740234 -38.24658203 72.97949219 C-37.83520996 73.64625977 -37.42383789 74.31302734 -37 75 C-36.99413376 74.40166855 -36.98826752 73.8033371 -36.98222351 73.18687439 C-36.91812533 66.94076396 -36.8336635 60.69516095 -36.73754883 54.44946289 C-36.70436252 52.12075505 -36.67631112 49.79196798 -36.65356445 47.46313477 C-36.61990331 44.10919543 -36.56758001 40.75597794 -36.51171875 37.40234375 C-36.50213387 35.84881447 -36.50213387 35.84881447 -36.49235535 34.26390076 C-36.37485093 28.44341164 -35.90010142 24.1018006 -33 19 C-29.17414446 16.44942964 -27.55736908 16.48545833 -23 17 C-17.73072048 19.18983045 -13.32878802 22.5062061 -8.8125 25.9375 C-5.21768356 28.59089436 -5.21768356 28.59089436 -0.875 28.8125 C6.39228382 24.30289646 6.39228382 24.30289646 12 18 C14.5625 17.75 14.5625 17.75 17 18 C18 19 18 19 18.0625 22.0625 C18.041875 23.031875 18.02125 24.00125 18 25 C17.030625 25.185625 16.06125 25.37125 15.0625 25.5625 C11.52578002 26.53420488 9.29887064 28.21970605 6.5 30.5625 C2.63344761 33.67794846 0.15333669 35.36809548 -5 35 C-10.7614567 32.65077135 -15.83138868 28.84707628 -20.859375 25.234375 C-23.24738287 23.85734856 -25.30410764 23.48176698 -28 23 C-29.80785805 30.49428191 -30.33222708 37.65896127 -30.4140625 45.3515625 C-30.43342865 46.49160736 -30.4527948 47.63165222 -30.4727478 48.8062439 C-30.53205822 52.41242217 -30.57873363 56.0186332 -30.625 59.625 C-30.66322449 62.08464858 -30.70227875 64.54428442 -30.7421875 67.00390625 C-30.83771934 73.00249019 -30.92290583 79.00115226 -31 85 C-37.58474825 83.89791324 -40.1307986 80.25484496 -44 75 C-51.86189854 62.7319825 -53.52799658 49.10345893 -50.52050781 34.96826172 C-47.15439727 22.23956414 -39.20551627 13.0924745 -28.3125 6.125 C-19.64131578 1.35197267 -9.86098409 -0.69688934 0 0 Z " fill="#BE2A30" transform="translate(54,2)"/>
<path d="M0 0 C5.26340306 2.22493947 9.66209268 5.49927762 14.1875 8.9375 C17.78231644 11.59089436 17.78231644 11.59089436 22.125 11.8125 C29.39228382 7.30289646 29.39228382 7.30289646 35 1 C37.5625 0.75 37.5625 0.75 40 1 C41 2 41 2 41.0625 5.0625 C41.041875 6.031875 41.02125 7.00125 41 8 C40.030625 8.185625 39.06125 8.37125 38.0625 8.5625 C34.52578002 9.53420488 32.29887064 11.21970605 29.5 13.5625 C25.63344761 16.67794846 23.15333669 18.36809548 18 18 C12.2385433 15.65077135 7.16861132 11.84707628 2.140625 8.234375 C-0.24182373 6.8605542 -2.29373294 6.39742383 -5 6 C-6.51922091 13.30518993 -7.81034913 20.63428929 -9 28 C-9.99 28 -10.98 28 -12 28 C-12.14560195 24.27124612 -12.23417043 20.54322566 -12.3125 16.8125 C-12.35439453 15.75740234 -12.39628906 14.70230469 -12.43945312 13.61523438 C-12.56307403 5.77766886 -12.56307403 5.77766886 -9.68359375 1.80078125 C-6.04274838 -0.64234788 -4.32866157 -0.72144359 0 0 Z " fill="#CA242A" transform="translate(31,19)"/>
<path d="M0 0 C0.33 0 0.66 0 1 0 C1 6.27 1 12.54 1 19 C1.99 19 2.98 19 4 19 C4 17.02 4 15.04 4 13 C4.33 13 4.66 13 5 13 C5 28.18 5 43.36 5 59 C-1.78817928 57.64236414 -4.00939774 54.44031324 -8 49 C-12.43284514 41.87305502 -14.96266909 35.43678667 -15 27 C-13.2175082 30.33311475 -12.51207144 33.24480943 -12 37 C-11.34 37 -10.68 37 -10 37 C-9.67 36.01 -9.34 35.02 -9 34 C-8.50628906 34.99902344 -8.01257813 35.99804688 -7.50390625 37.02734375 C-6.85687605 38.3307814 -6.20973489 39.63416398 -5.5625 40.9375 C-5.23701172 41.59685547 -4.91152344 42.25621094 -4.57617188 42.93554688 C-3.10888654 46.18290035 -3.10888654 46.18290035 -1 49 C-0.67 32.83 -0.34 16.66 0 0 Z " fill="#5F191C" transform="translate(18,28)"/>
<path d="M0 0 C0.87011719 0.00451172 1.74023438 0.00902344 2.63671875 0.01367188 C4.75784293 0.0253264 6.8789311 0.04325643 9 0.0625 C10.0625 1.875 10.0625 1.875 11 4.0625 C10.67 5.0525 10.34 6.0425 10 7.0625 C7.125 7.6875 7.125 7.6875 4 8.0625 C3.34 7.4025 2.68 6.7425 2 6.0625 C-4.73975008 3.45850565 -11.84888838 3.43939631 -19 3.0625 C-18.67 2.4025 -18.34 1.7425 -18 1.0625 C-11.99696082 -0.02214003 -6.08482992 -0.06075483 0 0 Z " fill="#D6242C" transform="translate(59,2.9375)"/>
<path d="M0 0 C0.33 0 0.66 0 1 0 C1 6.27 1 12.54 1 19 C1.99 19 2.98 19 4 19 C4 17.02 4 15.04 4 13 C4.33 13 4.66 13 5 13 C5 20.92 5 28.84 5 37 C4.505 35.515 4.505 35.515 4 34 C2.515 34.495 2.515 34.495 1 35 C0.25265639 30.34785065 -0.11936092 25.90132058 -0.09765625 21.19140625 C-0.09443359 19.95068359 -0.09121094 18.70996094 -0.08789062 17.43164062 C-0.07951172 16.15482422 -0.07113281 14.87800781 -0.0625 13.5625 C-0.05798828 12.25861328 -0.05347656 10.95472656 -0.04882812 9.61132812 C-0.03709251 6.40750448 -0.02067363 3.20377637 0 0 Z " fill="#951F26" transform="translate(18,28)"/>
<path d="M0 0 C2.05255287 7.66622597 2.20934545 15.67152215 2.5625 23.5625 C2.60568359 24.47580078 2.64886719 25.38910156 2.69335938 26.33007812 C2.79811757 28.55327991 2.90029017 30.77656707 3 33 C2.34 33 1.68 33 1 33 C-3.32334559 21.56635878 -3.89011205 11.67033615 0 0 Z " fill="#952229" transform="translate(5,32)"/>
<path d="M0 0 C0.70125 0.00515625 1.4025 0.0103125 2.125 0.015625 C2.82625 0.01046875 3.5275 0.0053125 4.25 0 C6.125 0.265625 6.125 0.265625 8.125 2.265625 C7.125 3.265625 7.125 3.265625 4.5625 3.328125 C3.3559375 3.2971875 3.3559375 3.2971875 2.125 3.265625 C1.795 4.255625 1.465 5.245625 1.125 6.265625 C0.465 6.265625 -0.195 6.265625 -0.875 6.265625 C-0.875 8.245625 -0.875 10.225625 -0.875 12.265625 C-1.865 12.265625 -2.855 12.265625 -3.875 12.265625 C-3.92895478 10.64098658 -3.96777195 9.01583959 -4 7.390625 C-4.02320312 6.48570313 -4.04640625 5.58078125 -4.0703125 4.6484375 C-3.82470913 1.65207642 -3.07431514 0.43552798 0 0 Z " fill="#E32128" transform="translate(23.875,19.734375)"/>
<path d="M0 0 C0.66 0.33 1.32 0.66 2 1 C1.01 2.485 1.01 2.485 0 4 C0.66 4.66 1.32 5.32 2 6 C-0.33623775 7.82518575 -2.08898065 9.01010373 -5.11328125 8.9765625 C-7.08537617 8.71735287 -9.04463697 8.36455921 -11 8 C-11 7.67 -11 7.34 -11 7 C-9.35 7 -7.7 7 -6 7 C-5.938125 6.401875 -5.87625 5.80375 -5.8125 5.1875 C-4.66061101 2.08626042 -2.93240408 1.35891897 0 0 Z " fill="#BA2B30" transform="translate(57,28)"/>
<path d="M0 0 C1.88391785 3.26545761 2.49287967 6.28111761 3 10 C3.66 10 4.32 10 5 10 C5.33 9.01 5.66 8.02 6 7 C6.66 9.31 7.32 11.62 8 14 C6.68 14.99 5.36 15.98 4 17 C-0.59225513 5.47835991 -0.59225513 5.47835991 0 0 Z " fill="#6E2628" transform="translate(3,55)"/>
<path d="M0 0 C-0.0625 1.8125 -0.0625 1.8125 -1 4 C-5.07276348 6.19302649 -8.36024175 7.4217962 -13 7 C-12.5 5.1875 -12.5 5.1875 -11 3 C-7.39776912 1.14053309 -4.06166652 0 0 0 Z " fill="#D52128" transform="translate(39,5)"/>
<path d="M0 0 C0.33 0 0.66 0 1 0 C1 1.98 1 3.96 1 6 C-0.5778125 6.37125 -0.5778125 6.37125 -2.1875 6.75 C-5.8133541 7.76700786 -8.19910772 9.45373429 -11 12 C-11.33 11.01 -11.66 10.02 -12 9 C-8.9315153 6.02449969 -7.53763669 5.03525487 -3.1875 4.75 C-1.6096875 4.87375 -1.6096875 4.87375 0 5 C0 3.35 0 1.7 0 0 Z " fill="#C8272D" transform="translate(71,21)"/>
<path d="M0 0 C0.66 0.33 1.32 0.66 2 1 C1.690625 1.845625 1.38125 2.69125 1.0625 3.5625 C-0.01538821 7.0497854 -0.56581304 10.38177535 -1 14 C-2.8587516 10.8758675 -3.20151847 8.90682466 -2.75 5.3125 C-2.66234375 4.52488281 -2.5746875 3.73726562 -2.484375 2.92578125 C-2.32453125 2.29027344 -2.1646875 1.65476563 -2 1 C-1.34 0.67 -0.68 0.34 0 0 Z " fill="#CB1F26" transform="translate(8,31)"/>
<path d="M0 0 C0.66 0.33 1.32 0.66 2 1 C1.01 2.485 1.01 2.485 0 4 C0.99 4.33 1.98 4.66 3 5 C1.02 5.99 1.02 5.99 -1 7 C-1.99 5.68 -2.98 4.36 -4 3 C-2.68 2.01 -1.36 1.02 0 0 Z " fill="#B7282D" transform="translate(26,8)"/>
</svg>
